<?xml version="1.0" encoding="UTF-8"?>
<svg version="1.1" xmlns="http://www.w3.org/2000/svg" width="327" height="321">
<path d="M0 0 C107.91 0 215.82 0 327 0 C327 105.93 327 211.86 327 321 C219.09 321 111.18 321 0 321 C0 215.07 0 109.14 0 0 Z " fill="#FCFDFB" transform="translate(0,0)"/>
<path d="M0 0 C8.11475273 2.67759518 10.91072055 10.63264349 14.6875 17.8125 C22.52712085 33.697545 23.42673899 51.20798939 17.78369141 67.97753906 C15.80495527 73.08403443 13.06713622 77.81502382 10.39453125 82.58203125 C6.39027507 89.79165285 3.24969423 97.42918646 0 105 C-0.99 105 -1.98 105 -3 105 C-3.185625 106.0828125 -3.185625 106.0828125 -3.375 107.1875 C-3.9904931 109.95721894 -4.88444374 112.3970354 -6 115 C-6.99 115 -7.98 115 -9 115 C-9.25523437 116.02351563 -9.51046875 117.04703125 -9.7734375 118.1015625 C-10.86087549 121.89712102 -12.56953938 124.99290742 -14.625 128.375 C-18.98114975 135.72556367 -22.58915253 143.34368196 -26.12451172 151.11523438 C-26.87178391 152.72397428 -27.66743876 154.31009199 -28.47265625 155.890625 C-32.62313216 164.16619166 -34.22371166 172.97963074 -36 182 C-32.04188091 178.61760733 -28.1837549 175.24256491 -24.625 171.4375 C-14.02476026 160.8134395 -0.48611143 157.63646239 14.0625 157.5 C28.92709609 157.65198717 42.75704683 161.78295 53.75 172.3125 C56 175 56 175 56 177 C55.05640625 177.14695313 54.1128125 177.29390625 53.140625 177.4453125 C39.69903759 179.79354163 30.21454112 184.63651259 19.87890625 193.59765625 C7.07547023 204.28166324 -5.72949167 206.22020237 -22 206 C-22.30404872 202.49837225 -22.35301339 200.56072076 -20.453125 197.54296875 C-10.98708331 187.42236035 -0.86191265 180.09622954 12 175 C3.10488873 174.31223366 -2.33992927 175.60839438 -10 180 C-11.53317823 180.68596288 -13.07480112 181.35342132 -14.625 182 C-18.45045043 183.6549821 -21.83517465 185.69810285 -25.2734375 188.046875 C-27 189 -27 189 -30 189 C-30.25007812 189.65742188 -30.50015625 190.31484375 -30.7578125 190.9921875 C-32.01161462 194.02812346 -33.39526998 196.96903566 -34.81835938 199.92797852 C-38.29621662 207.15931801 -41.49291119 214.36327553 -44 222 C-44.99 222 -45.98 222 -47 222 C-47.2784375 223.2065625 -47.2784375 223.2065625 -47.5625 224.4375 C-51.83682558 235.03039384 -61.23114392 242.54381617 -71 248 C-71.7425 248.165 -72.485 248.33 -73.25 248.5 C-73.8275 248.665 -74.405 248.83 -75 249 C-75.33 249.99 -75.66 250.98 -76 252 C-78.328125 253.1328125 -78.328125 253.1328125 -81.25 254.125 C-82.68085938 254.62386719 -82.68085938 254.62386719 -84.140625 255.1328125 C-100.08011757 259.9669209 -119.38940311 257.62936112 -134 250 C-144.63114917 243.52993941 -155.52492598 235.55157662 -161 224 C-161.15625 221.23046875 -161.15625 221.23046875 -161 219 C-161.99 219 -162.98 219 -164 219 C-169.77877969 201.98289453 -169.61315063 185.21873705 -169.34332275 167.49517822 C-169.29131109 163.70656595 -169.26915766 159.91777588 -169.24414062 156.12890625 C-169.19120821 148.75207726 -169.10360005 141.37632329 -169 134 C-164.05 134 -159.1 134 -154 134 C-153.9906543 135.70349609 -153.98130859 137.40699219 -153.97167969 139.16210938 C-153.93582819 144.85792666 -153.88183099 150.55338935 -153.81609726 156.24893951 C-153.77696991 159.69445912 -153.74461501 163.13973645 -153.72900391 166.58544922 C-153.78988834 186.64259215 -153.78988834 186.64259215 -149.84863281 206.18164062 C-149 209 -149 209 -149 213 C-148.01 213 -147.02 213 -146 213 C-144.45703125 214.90625 -144.45703125 214.90625 -142.8125 217.5 C-136.38971938 226.99980313 -129.36710349 233.94322166 -117.96484375 236.74609375 C-102.36167157 239.49513381 -87.4250304 239.0729601 -74 230 C-72.67817674 229.62360638 -71.34544389 229.28048107 -70 229 C-69.91150768 225.22931943 -69.85911546 221.45891235 -69.8125 217.6875 C-69.78736328 216.63498047 -69.76222656 215.58246094 -69.73632812 214.49804688 C-69.59637787 199.33676949 -74.54192185 186.98915243 -85 176 C-87.12275787 174.71710266 -87.12275787 174.71710266 -89 174 C-87.32172301 177.59630783 -85.8043257 180.23859765 -83 183 C-78.34601844 190.04745779 -78.033006 196.68385164 -79 205 C-80.09001117 208.71493603 -81.41006548 211.93531171 -84.75 214.171875 C-90.23334785 216.19005164 -97.13214739 216.26509668 -102.48828125 213.90234375 C-108.84033035 209.41643337 -111.95877549 203.42352531 -114 196 C-114.27359265 193.07389436 -114.27712681 190.16388504 -114.2734375 187.2265625 C-114.29375607 185.49608763 -114.31460733 183.76561895 -114.3359375 182.03515625 C-114.35832031 179.34581276 -114.37493007 176.65671684 -114.38085938 173.96728516 C-114.42942543 160.8617361 -115.83588109 149.49235674 -120 137 C-100.7223002 139.20812778 -82.35312178 150.26555354 -70 165 C-59.09689591 179.19460721 -59.2444864 195.89859785 -59 213 C-58.54625 212.175 -58.0925 211.35 -57.625 210.5 C-57.08875 209.675 -56.5525 208.85 -56 208 C-55.34 208 -54.68 208 -54 208 C-53.92483154 206.63234497 -53.92483154 206.63234497 -53.84814453 205.23706055 C-53.65602673 201.80181123 -53.45769736 198.36703061 -53.25537109 194.93237305 C-53.16960884 193.45562408 -53.08620915 191.97873569 -53.00537109 190.50170898 C-51.62369821 165.35014528 -51.62369821 165.35014528 -47 156 C-46.01 155.34 -45.02 154.68 -44 154 C-43.16852188 152.05228066 -43.16852188 152.05228066 -42.625 149.8125 C-41.16170585 145.05294325 -39.2314182 141.79691639 -36 138 C-35.01 138 -34.02 138 -33 138 C-32.938125 137.0203125 -32.87625 136.040625 -32.8125 135.03125 C-32.10728636 130.15352233 -29.64254348 126.57287047 -27 122.5 C-25.99307755 120.89869652 -24.98657309 119.29713013 -23.98046875 117.6953125 C-23.47692871 116.90286133 -22.97338867 116.11041016 -22.45458984 115.29394531 C-11.62502835 98.21530151 -3.27951622 81.26669748 3 62 C3.66 62 4.32 62 5 62 C5 56.39 5 50.78 5 45 C4.34 45 3.68 45 3 45 C2.67 42.69 2.34 40.38 2 38 C1.01 38 0.02 38 -1 38 C-0.91878906 39.29550781 -0.83757812 40.59101562 -0.75390625 41.92578125 C-0.20004539 54.86676472 -1.58903068 66.5016677 -8 78 C-10.17578125 80.359375 -10.17578125 80.359375 -12 82 C-12.309375 82.886875 -12.61875 83.77375 -12.9375 84.6875 C-13.288125 85.450625 -13.63875 86.21375 -14 87 C-16.56640625 87.64453125 -16.56640625 87.64453125 -19 88 C-19.79441072 86.12616097 -20.58539974 84.25087114 -21.375 82.375 C-21.81585938 81.33085938 -22.25671875 80.28671875 -22.7109375 79.2109375 C-23.13632813 78.15132813 -23.56171875 77.09171875 -24 76 C-24.3815625 75.0925 -24.763125 74.185 -25.15625 73.25 C-26.34227477 68.68160829 -26.21209661 64.32151744 -26.125 59.625 C-26.11597656 58.69816406 -26.10695312 57.77132812 -26.09765625 56.81640625 C-26.07422937 54.54399923 -26.04142748 52.2721382 -26 50 C-25.01 50 -24.02 50 -23 50 C-22.9175 48.845 -22.835 47.69 -22.75 46.5 C-22.18513317 41.77872502 -20.33831147 38.0893261 -18 34 C-17.01 34 -16.02 34 -15 34 C-14.88591797 32.70835938 -14.88591797 32.70835938 -14.76953125 31.390625 C-13.84605338 27.32169714 -12.18864154 25.07393933 -9.6875 21.75 C-4.73731633 14.94935335 -1.52577556 8.33308193 0 0 Z " fill="#81C139" transform="translate(203,24)"/>
<path d="M0 0 C1.00804688 0.42410156 2.01609375 0.84820313 3.0546875 1.28515625 C18.59544173 8.383287 29.96597174 20.52127298 37 36 C37.49506042 37.06098404 37.49506042 37.06098404 38.00012207 38.1434021 C41.47177928 46.43383021 41.51862231 54.34388771 41.390625 63.16796875 C41.38314704 64.69923659 41.37746148 66.23051413 41.37347412 67.76179504 C41.35833973 71.75517079 41.31916679 75.74794694 41.2746582 79.74108887 C41.23343899 83.83056533 41.21540674 87.92014047 41.1953125 92.00976562 C41.15265762 100.00678287 41.0845586 108.00331646 41 116 C28.37004515 116.02312132 15.7400953 116.04091401 3.11012363 116.05181217 C-2.75382164 116.05704146 -8.61775249 116.06413994 -14.48168945 116.07543945 C-20.13561712 116.0862667 -25.78953087 116.09227649 -31.44346809 116.09487724 C-33.6057361 116.09673179 -35.76800331 116.10035295 -37.93026543 116.10573006 C-40.94758657 116.11293833 -43.96484943 116.11399103 -46.98217773 116.11352539 C-47.8856041 116.11712067 -48.78903046 116.12071594 -49.71983337 116.12442017 C-55.88594784 116.11405216 -55.88594784 116.11405216 -57 115 C-57.10123463 112.02866823 -57.1396796 109.0810853 -57.1328125 106.109375 C-57.13376923 105.21261047 -57.13472595 104.31584595 -57.13571167 103.39190674 C-57.13639381 101.48864675 -57.13453717 99.58538446 -57.13037109 97.68212891 C-57.1250482 94.77631341 -57.13030198 91.87065425 -57.13671875 88.96484375 C-57.13605748 87.11718716 -57.13477532 85.26953067 -57.1328125 83.421875 C-57.13483673 82.55399353 -57.13686096 81.68611206 -57.13894653 80.79193115 C-57.12327974 76.73007662 -57.01949802 72.9625772 -56 69 C-55.34 69 -54.68 69 -54 69 C-54.05800781 68.3915625 -54.11601563 67.783125 -54.17578125 67.15625 C-54.64458075 58.04814549 -51.95228766 50.47217096 -49 42 C-48.33131415 40.00067419 -47.66387402 38.00092872 -47 36 C-52.0480148 37.29135262 -54.79252595 38.86404662 -58 43 C-63.92263938 55.92404522 -67.22033446 70.77006158 -67.4140625 84.9453125 C-67.43342865 85.84120087 -67.4527948 86.73708923 -67.4727478 87.66012573 C-67.53184765 90.48165798 -67.57864653 93.30323259 -67.625 96.125 C-67.66324405 98.05470389 -67.70229936 99.98439189 -67.7421875 101.9140625 C-67.83749055 106.60924369 -67.92177354 111.30450452 -68 116 C-71.64581687 116.02887512 -75.29160463 116.04675585 -78.9375 116.0625 C-80.49887695 116.07506836 -80.49887695 116.07506836 -82.09179688 116.08789062 C-83.08115234 116.09111328 -84.07050781 116.09433594 -85.08984375 116.09765625 C-86.46450806 116.10551147 -86.46450806 116.10551147 -87.86694336 116.11352539 C-90 116 -90 116 -91 115 C-91.12057137 112.92209838 -91.17027125 110.84006315 -91.19287109 108.75878906 C-91.20104858 108.10652847 -91.20922607 107.45426788 -91.21765137 106.78224182 C-91.24257907 104.61004554 -91.25905418 102.4379157 -91.2734375 100.265625 C-91.27876118 99.52152122 -91.28408485 98.77741745 -91.28956985 98.01076508 C-91.31635362 94.06008433 -91.33569779 90.1094355 -91.35009766 86.15869141 C-91.36335198 82.90742316 -91.39103588 79.6567953 -91.43212891 76.40576172 C-91.48189086 72.46875819 -91.50627362 68.53232861 -91.51332474 64.59502411 C-91.51997583 63.10410048 -91.53503442 61.61318651 -91.55921555 60.12244415 C-91.71387652 49.9966937 -90.35648453 42.19514092 -86 33 C-85.01 33 -84.02 33 -83 33 C-82.690625 31.2675 -82.690625 31.2675 -82.375 29.5 C-81.0843687 24.38260179 -78.42522825 20.93266947 -75 17 C-74.484375 16.401875 -73.96875 15.80375 -73.4375 15.1875 C-55.81179213 -3.79403155 -23.71644403 -10.60303417 0 0 Z " fill="#7EC034" transform="translate(125,29)"/>
<path d="M0 0 C8.02330529 6.14206445 17.00816065 14.77958235 19.78125 24.83203125 C20.0625 27.3125 20.0625 27.3125 20 31 C19.39486572 30.78851318 18.78973145 30.57702637 18.16625977 30.35913086 C11.96652815 28.32675468 6.44683355 27.48860727 -0.0625 27.5625 C-0.97153076 27.56572266 -1.88056152 27.56894531 -2.81713867 27.57226562 C-9.48665278 27.70755698 -15.46957634 28.82813247 -21.88354492 30.55883789 C-34.01911086 33.72532889 -45.98939179 33.16124877 -57.0390625 26.83203125 C-58.75 25.625 -58.75 25.625 -61 23 C-61 19.21693288 -60.68615656 17.68615656 -58 15 C-55.79296875 14.18359375 -55.79296875 14.18359375 -53.1875 13.4375 C-51.90939453 13.06431641 -51.90939453 13.06431641 -50.60546875 12.68359375 C-45.99319537 11.47347705 -41.82376603 10.87782684 -37.04296875 10.90234375 C-35.93115234 10.90556641 -34.81933594 10.90878906 -33.67382812 10.91210938 C-32.52333984 10.92048828 -31.37285156 10.92886719 -30.1875 10.9375 C-29.01767578 10.94201172 -27.84785156 10.94652344 -26.64257812 10.95117188 C-23.76166642 10.9629307 -20.88085956 10.97936574 -18 11 C-18 10.34 -18 9.68 -18 9 C-36.60333362 3.95502817 -56.34902855 2.29356743 -74 12 C-75.9656192 13.51803987 -77.76534286 15.07911183 -79.52734375 16.828125 C-81 18 -81 18 -84 18 C-84 18.99 -84 19.98 -84 21 C-84.99 21 -85.98 21 -87 21 C-85.8905928 17.51329166 -84.73662334 14.22515763 -83 11 C-82.34 11 -81.68 11 -81 11 C-80.7525 10.360625 -80.505 9.72125 -80.25 9.0625 C-78.67012061 6.455699 -77.83219689 6.70804922 -75 6 C-74.71125 5.4225 -74.4225 4.845 -74.125 4.25 C-70.52120245 -2.95759509 -62.12379179 -5.51436042 -55 -8 C-35.80807381 -14.12871943 -16.47702447 -12.08130821 0 0 Z " fill="#81C13A" transform="translate(297,120)"/>
<path d="M0 0 C5.43066613 2.84633597 8.5780172 7.31624455 11.90625 12.30859375 C12.54179234 18.55809338 11.7053288 23.20456821 7.90625 28.30859375 C1.69647396 34.0685671 -3.55651368 35.84654583 -12.0078125 35.78515625 C-17.13773796 34.99293991 -19.90930048 32.24326447 -23.09375 28.30859375 C-26.35050521 23.52523453 -26.38339714 19.90843853 -26.09375 14.30859375 C-25.43375 13.97859375 -24.77375 13.64859375 -24.09375 13.30859375 C-23.805 12.40109375 -23.51625 11.49359375 -23.21875 10.55859375 C-21.69637499 6.1606215 -19.49744086 3.54214027 -16.03125 0.49609375 C-10.93382048 -1.56456925 -5.25266003 -1.73455378 0 0 Z " fill="#82C13A" transform="translate(261.09375,60.69140625)"/>
<path d="M0 0 C2.97 0 5.94 0 9 0 C9 21.78 9 43.56 9 66 C10.32 66.33 11.64 66.66 13 67 C15.03515625 69.1796875 15.03515625 69.1796875 17.0625 71.875 C19.69549754 75.41832477 19.69549754 75.41832477 22.765625 78.55859375 C24 80 24 80 24.07421875 82.04296875 C23.71614583 84.02864583 23.35807292 86.01432292 23 88 C21.4375 88.75 21.4375 88.75 19 89 C10.07952182 85.03534303 5.48074062 78.09303302 1.2723999 69.49694824 C-1.00593332 63.23538431 -0.73596517 56.94909905 -0.5859375 50.390625 C-0.57471566 48.92805746 -0.56618964 47.46546702 -0.56021118 46.00286865 C-0.53754642 42.19489796 -0.47882635 38.38834981 -0.4119873 34.58093262 C-0.35007372 30.67915073 -0.32309269 26.77713387 -0.29296875 22.875 C-0.22905278 15.24935875 -0.12695659 7.62488036 0 0 Z " fill="#83C23C" transform="translate(58,158)"/>
<path d="M0 0 C0.99 0 1.98 0 3 0 C3.33 2.31 3.66 4.62 4 7 C4.66 7 5.32 7 6 7 C6 12.61 6 18.22 6 24 C5.67 24 5.34 24 5 24 C5 19.05 5 14.1 5 9 C4.01 9 3.02 9 2 9 C2 12.3 2 15.6 2 19 C1.34 19 0.68 19 0 19 C0 12.73 0 6.46 0 0 Z " fill="#C4E2A1" transform="translate(202,62)"/>
<path d="M0 0 C0.33 0 0.66 0 1 0 C1.33 8.91 1.66 17.82 2 27 C0.68 27.33 -0.64 27.66 -2 28 C-2.13479442 18.98375128 -2.04962241 9.96714451 -1 1 C-0.67 0.67 -0.34 0.34 0 0 Z " fill="#A3D26E" transform="translate(142,213)"/>
<path d="M0 0 C-0.33 1.32 -0.66 2.64 -1 4 C-1.66 4 -2.32 4 -3 4 C-3.804375 4.66 -4.60875 5.32 -5.4375 6 C-8 8 -8 8 -11 8 C-11 9.32 -11 10.64 -11 12 C-11.99 12.33 -12.98 12.66 -14 13 C-11.91663426 5.5346061 -8.3940268 -0.45373118 0 0 Z " fill="#D4EABB" transform="translate(78,65)"/>
<path d="M0 0 C2 3 2 3 3 6 C1.68 6.33 0.36 6.66 -1 7 C-1 7.99 -1 8.98 -1 10 C-1.99 10 -2.98 10 -4 10 C-2.8905928 6.51329166 -1.73662334 3.22515763 0 0 Z " fill="#A5D371" transform="translate(214,131)"/>
<path d="M0 0 C4.67692308 1.47692308 4.67692308 1.47692308 6.3125 4.125 C6.539375 4.74375 6.76625 5.3625 7 6 C5.68 6.33 4.36 6.66 3 7 C0 3.375 0 3.375 0 0 Z " fill="#C7E2A7" transform="translate(114,198)"/>
<path d="M0 0 C0.33 0.66 0.66 1.32 1 2 C-2.625 6.875 -2.625 6.875 -6 8 C-4.125 3.25 -4.125 3.25 -3 1 C-2.01 0.67 -1.02 0.34 0 0 Z " fill="#D4E9BA" transform="translate(176,212)"/>
<path d="M0 0 C3.96 0 7.92 0 12 0 C12.33 0.66 12.66 1.32 13 2 C11.35 2.33 9.7 2.66 8 3 C8 2.34 8 1.68 8 1 C3.545 1.495 3.545 1.495 -1 2 C-0.67 1.34 -0.34 0.68 0 0 Z " fill="#C6E3A4" transform="translate(203,198)"/>
</svg>
